PathFileType	4	(X/Y/Z)	C:\Users\86182\Documents\cortex\Trimmed_M1_L7.trc
DataRate	CameraRate	NumFrames	NumMarkers	Units	OrigDataRate	OrigDataStartFrame	OrigNumFrames
100.00	100.00	       141	2	mm	100.00	181	       901
Frame#	Time	gripper			box			
		X1	Y1	Z1	X2	Y2	Z2	

181	1.800	199.07623	194.23135	222.65930	201.54909	193.79366	85.64523	
182	1.810	199.02571	194.43060	223.30501	201.82144	193.71463	86.14593	
183	1.820	199.05208	194.44431	223.67929	201.97774	193.75508	86.51707	
184	1.830	199.26526	194.36517	223.98137	201.77783	193.92133	87.18385	
185	1.840	199.22723	194.27687	224.53688	201.69452	193.80768	87.58968	
186	1.850	199.09276	194.43312	225.08664	201.69226	193.87721	88.07239	
187	1.860	199.02626	194.48309	225.43445	201.81784	193.89520	88.25053	
188	1.870	199.00372	194.35323	225.80083	201.88411	193.94806	88.56814	
189	1.880	199.18796	194.39951	226.17383	201.55925	193.79568	89.04267	
190	1.890	199.29384	194.43332	226.64703	201.69168	193.82199	89.77791	
191	1.900	199.18916	194.47975	226.98425	201.69559	193.79738	89.98172	
192	1.910	198.86954	194.42198	227.46254	201.76959	193.92595	90.29164	
193	1.920	199.17972	194.43208	227.95241	201.47136	193.60378	90.79967	
194	1.930	199.22075	194.50319	228.18532	201.30983	193.64954	91.28433	
195	1.940	199.00320	194.41524	228.71800	201.49283	193.63995	91.64095	
196	1.950	199.09491	194.32535	229.13507	201.62071	193.71748	92.21633	
197	1.960	199.13411	194.53799	229.69098	201.72356	193.58345	92.52422	
198	1.970	199.18651	194.54768	230.01912	201.43533	193.67415	93.05408	
199	1.980	198.88847	194.47838	230.47984	201.35480	193.64442	93.47276	
200	1.990	198.97191	194.47684	230.93579	201.40529	193.62077	93.84074	
201	2.000	199.08058	194.41975	231.42151	201.49052	193.65779	94.40347	
202	2.010	199.23250	194.55240	231.87677	201.70752	193.68857	94.65094	
203	2.020	199.02019	194.51610	232.26787	201.40231	193.67445	95.41010	
204	2.030	198.99931	194.57231	232.65231	201.24100	193.58513	95.66380	
205	2.040	198.90492	194.51836	233.00482	201.16727	193.55893	95.99400	
206	2.050	198.91296	194.57736	233.35831	201.31352	193.65381	96.29642	
207	2.060	199.12857	194.55545	233.93802	201.37079	193.68048	96.94800	
208	2.070	198.92422	194.54065	234.42525	201.06183	193.62090	97.38877	
209	2.080	198.88860	194.52481	234.74039	201.25266	193.58926	97.82002	
210	2.090	198.83727	194.56488	235.05904	201.11395	193.48505	97.96549	
211	2.100	198.93796	194.63794	235.41042	201.23857	193.68430	98.45296	
212	2.110	198.87514	194.55586	236.01573	201.03838	193.59109	98.88329	
213	2.120	199.03891	194.50638	236.42198	201.26498	193.56819	99.53601	
214	2.130	199.04768	194.61977	236.82132	201.10999	193.54552	99.87521	
215	2.140	199.10478	194.59370	237.30083	201.47446	193.68483	100.33879	
216	2.150	198.97450	194.58946	237.65479	201.41344	193.67484	100.63000	
217	2.160	199.02988	194.66164	238.20995	201.19830	193.66992	101.11179	
218	2.170	199.18608	194.64656	238.77155	200.34303	194.52333	102.39153	
219	2.180	199.15707	194.62102	239.09285	201.42015	193.78204	102.17236	
220	2.190	199.15900	194.70607	239.44930	201.47765	193.72580	102.48053	
221	2.200	199.05321	194.77837	239.99242	201.40521	193.76003	102.91370	
222	2.210	198.89078	194.76749	240.55307	201.28087	193.81380	103.36482	
223	2.220	199.03044	194.68190	240.94139	201.22406	193.77638	103.86486	
224	2.230	199.26976	194.73451	241.19984	201.29778	193.82462	104.36203	
225	2.240	199.08525	194.71591	241.75656	201.26863	193.85507	104.62656	
226	2.250	199.07254	194.70601	242.08545	201.05151	193.86911	105.02457	
227	2.260	198.87764	194.80174	242.47408	201.25171	193.98141	105.53309	
228	2.270	198.94536	194.85469	242.92700	201.00232	193.66765	105.89545	
229	2.280	198.95389	194.78554	243.37985	200.92058	193.80762	106.29459	
230	2.290	198.88831	194.71620	243.73889	201.01602	193.91898	106.65735	
231	2.300	198.94432	194.73741	244.13475	201.10309	193.93864	107.27789	
232	2.310	198.90831	194.75180	244.59908	200.99884	193.83525	107.58791	
233	2.320	198.98671	194.81404	245.05624	200.94582	193.78593	108.07277	
234	2.330	198.98550	194.86177	245.46440	200.96776	193.92764	108.30051	
235	2.340	199.18874	194.79144	245.83215	201.14375	193.91367	109.04213	
236	2.350	199.14938	194.73076	246.40143	201.06888	193.89021	109.47241	
237	2.360	199.09399	194.84373	246.74474	200.99568	193.93602	109.73635	
238	2.370	198.97589	194.89395	247.23349	201.27983	193.92728	110.21071	
239	2.380	199.12152	194.83638	247.79903	201.29031	193.93744	110.70300	
240	2.390	199.19350	194.77242	248.12186	201.18204	193.96123	111.02019	
241	2.400	199.15791	194.81404	248.55661	201.03543	193.97134	111.47810	
242	2.410	199.29898	194.89261	248.88814	201.10872	193.97475	112.08763	
243	2.420	199.06863	194.84866	249.44000	201.15065	193.94296	112.45638	
244	2.430	199.12648	194.91223	249.77118	201.28914	193.97974	112.72105	
245	2.440	199.01183	194.83195	250.03279	201.06960	193.97086	113.01600	
246	2.450	199.16470	194.88989	250.56926	200.92065	193.88011	113.49362	
247	2.460	199.05208	194.85081	250.99785	200.97098	193.89221	114.13722	
248	2.470	198.95683	194.79071	251.41138	200.90002	194.01402	114.54479	
249	2.480	198.86766	194.80167	251.67708	200.97087	194.07372	114.63390	
250	2.490	199.04742	194.84818	252.24156	200.84576	193.92892	115.12155	
251	2.500	198.98959	194.72955	252.61568	200.91306	193.85754	115.61700	
252	2.510	198.87752	194.72502	253.07851	201.01079	193.94707	116.03430	
253	2.520	198.94078	194.79039	253.49397	200.84596	193.95790	116.52088	
254	2.530	198.86047	194.75134	254.11682	200.98409	194.11324	116.90706	
255	2.540	198.81763	194.75639	254.43303	200.83214	194.10048	117.38168	
256	2.550	198.65840	194.75352	254.79375	201.03703	194.12357	117.77901	
257	2.560	198.85089	194.81876	255.45865	200.94997	193.88165	118.15694	
258	2.570	198.75044	194.75246	255.69408	201.01048	194.08627	118.86029	
259	2.580	198.77377	194.80898	256.11603	200.89702	194.11864	119.28288	
260	2.590	198.60686	194.73039	256.66605	200.95993	194.21594	119.50023	
261	2.600	198.73509	194.86380	257.18704	200.74744	194.08221	119.95404	
262	2.610	198.56708	194.87282	257.55096	200.91342	194.10117	120.57616	
263	2.620	198.55875	194.78320	257.85358	200.89075	194.14870	120.83325	
264	2.630	198.68521	194.81992	258.41183	200.87228	194.31729	121.34428	
265	2.640	198.73686	194.87975	258.76483	200.75677	194.18068	121.74033	
266	2.650	198.58969	194.88849	259.16458	200.66484	194.26411	122.36125	
267	2.660	198.34946	194.76390	259.66370	200.51807	194.30444	122.64175	
268	2.670	198.60219	194.90205	260.09146	200.57614	194.29623	122.91682	
269	2.680	198.48424	194.82230	260.42764	200.66701	194.18030	123.26380	
270	2.690	198.49222	194.75655	260.88184	200.48730	194.14746	123.94698	
271	2.700	198.50017	194.77034	261.33566	200.50359	194.14404	124.43566	
272	2.710	198.51672	194.98848	261.81427	200.38591	194.09901	124.71797	
273	2.720	198.50237	194.87764	262.06067	200.36583	194.24574	125.05940	
274	2.730	198.43597	194.72151	262.54346	200.65709	194.19676	125.52667	
275	2.740	198.52940	194.77205	263.21689	200.65956	194.11661	126.01453	
276	2.750	198.54797	194.89827	263.53632	200.56866	194.13800	126.58057	
277	2.760	198.38882	194.80037	263.94012	200.64168	194.21147	126.89565	
278	2.770	198.54649	194.75894	264.41318	200.50298	194.31201	127.37430	
279	2.780	198.55017	194.86084	264.84442	200.43918	194.14751	127.73313	
280	2.790	198.59009	194.81998	265.30185	200.44975	194.20877	128.23068	
281	2.800	198.46217	194.80551	265.68774	200.55113	194.21696	128.73117	
282	2.810	198.31285	194.93593	266.15283	200.58620	194.17979	129.19330	
283	2.820	198.47681	194.85165	266.46310	200.46165	194.22774	129.51588	
284	2.830	198.43712	194.82449	266.89474	200.36092	194.25743	129.85266	
285	2.840	198.48260	194.75487	267.33517	200.19923	194.18684	130.17497	
286	2.850	198.42278	194.82495	267.81989	200.39182	194.10693	130.75797	
287	2.860	198.41338	194.89636	268.19727	200.36754	194.20134	131.18633	
288	2.870	198.28427	194.93475	268.63858	200.43996	194.08449	131.55388	
289	2.880	198.43159	194.88075	268.96631	200.20354	194.11540	131.95782	
290	2.890	198.43922	194.82990	269.35986	200.19470	194.09706	132.44571	
291	2.900	198.50233	194.86214	269.82892	200.17677	194.01949	132.69376	
292	2.910	198.45093	194.91632	270.27017	200.22295	193.89482	133.25340	
293	2.920	198.41374	194.89259	270.79199	200.39160	193.97691	133.54590	
294	2.930	198.36763	194.85941	271.04541	200.47173	194.08806	134.25424	
295	2.940	198.59268	194.85809	271.43973	200.23053	194.03029	134.62320	
296	2.950	198.80074	194.88515	272.05203	200.21452	193.95114	134.85672	
297	2.960	198.55507	194.90108	272.53760	200.38309	194.03375	135.25943	
298	2.970	198.47414	194.94038	272.87231	200.52289	194.11711	135.87566	
299	2.980	198.52090	194.96719	273.16141	200.40210	193.91829	136.42667	
300	2.990	198.73241	194.86472	273.72363	200.47336	194.06874	136.72958	
301	3.000	198.86400	194.85268	274.16403	200.51938	194.15637	137.10500	
302	3.010	198.65437	195.06863	274.67273	200.33130	194.02795	137.44910	
303	3.020	198.54138	194.93901	275.15161	200.40724	193.96519	138.06131	
304	3.030	198.48376	194.94258	275.34494	200.26706	194.10918	138.45482	
305	3.040	198.43817	194.98880	275.78625	200.51624	194.19443	139.11404	
306	3.050	198.59821	195.02119	276.39108	200.33434	194.05132	139.40048	
307	3.060	198.58072	195.05313	276.89346	200.29710	194.02942	139.56374	
308	3.070	198.51379	195.03389	277.14349	200.06200	194.05818	139.82295	
309	3.080	198.62242	195.02910	277.46564	200.25473	194.11633	140.65582	
310	3.090	198.26796	195.02962	278.01343	200.14461	194.15659	141.17094	
311	3.100	198.16806	195.09560	278.41324	200.15962	194.17589	141.42134	
312	3.110	198.47064	195.10683	278.82520	200.13475	194.11908	141.60959	
313	3.120	198.58055	195.03645	279.26288	200.22420	194.07234	142.11551	
314	3.130	198.60936	194.94659	279.67935	200.12054	194.11798	142.72031	
315	3.140	198.49059	195.06407	279.98224	200.28587	194.18463	143.09595	
316	3.150	198.42404	195.13132	280.41870	200.28366	194.25897	143.33607	
317	3.160	198.55220	195.10902	281.07220	200.41490	194.08015	144.03442	
318	3.170	198.73636	195.02283	281.39359	200.50381	194.13744	144.26489	
319	3.180	198.75496	195.02109	281.70721	200.38789	194.20995	144.62793	
320	3.190	198.62222	195.10754	282.19040	200.45595	194.14731	145.19659	
321	3.200	198.48732	195.13898	282.66760	200.52249	194.22554	145.83684	
